<svg width="18" height="20" viewBox="0 0 18 20" fill="none" xmlns="http://www.w3.org/2000/svg">
<path d="M15 14.12C14.24 14.12 13.56 14.42 13.04 14.89L5.91 10.74C5.96 10.51 6 10.28 6 10.04C6 9.79998 5.96 9.56998 5.91 9.33998L12.96 5.22998C13.5 5.72998 14.21 6.03998 15 6.03998C16.66 6.03998 18 4.69998 18 3.03998C18 1.37998 16.66 0.039978 15 0.039978C13.34 0.039978 12 1.37998 12 3.03998C12 3.27998 12.04 3.50998 12.09 3.73998L5.04 7.84998C4.5 7.34998 3.79 7.03998 3 7.03998C1.34 7.03998 0 8.37998 0 10.04C0 11.7 1.34 13.04 3 13.04C3.79 13.04 4.5 12.73 5.04 12.23L12.16 16.39C12.11 16.6 12.08 16.82 12.08 17.04C12.08 18.65 13.39 19.96 15 19.96C16.61 19.96 17.92 18.65 17.92 17.04C17.92 15.43 16.61 14.12 15 14.12ZM15 2.03998C15.55 2.03998 16 2.48998 16 3.03998C16 3.58998 15.55 4.03998 15 4.03998C14.45 4.03998 14 3.58998 14 3.03998C14 2.48998 14.45 2.03998 15 2.03998ZM3 11.04C2.45 11.04 2 10.59 2 10.04C2 9.48998 2.45 9.03998 3 9.03998C3.55 9.03998 4 9.48998 4 10.04C4 10.59 3.55 11.04 3 11.04ZM15 18.06C14.45 18.06 14 17.61 14 17.06C14 16.51 14.45 16.06 15 16.06C15.55 16.06 16 16.51 16 17.06C16 17.61 15.55 18.06 15 18.06Z" fill="white"/>
</svg>
